<svg xmlns="http://www.w3.org/2000/svg" width="26" height="26" viewBox="0 0 26 26">
  <path fill="#FFFFFF" d="M25.604687,23.6818804 L19.1952423,17.2460064 C20.8432231,15.3546326 21.7461616,12.9748973 21.7461616,10.4974897 C21.7461616,4.70926518 16.868403,0 10.8730808,0 C4.87775859,0 0,4.70926518 0,10.4974897 C0,16.2857143 4.87775859,20.9949795 10.8730808,20.9949795 C13.1238085,20.9949795 15.2686419,20.339571 17.1024106,19.0953902 L23.5605479,25.5801004 C23.8304839,25.8507531 24.1935503,26 24.5826174,26 C24.950884,26 25.3002408,25.8644455 25.5654494,25.6179827 C26.1289586,25.0944774 26.1469229,24.2263806 25.604687,23.6818804 Z M10.8730808,2.73847558 C15.3045703,2.73847558 18.9097057,6.21907805 18.9097057,10.4974897 C18.9097057,14.7759014 15.3045703,18.2565039 10.8730808,18.2565039 C6.44159126,18.2565039 2.83645586,14.7759014 2.83645586,10.4974897 C2.83645586,6.21907805 6.44159126,2.73847558 10.8730808,2.73847558 Z"/>
</svg>
